<svg width="40" height="40" viewBox="0 0 40 40" fill="none" xmlns="http://www.w3.org/2000/svg">
<g clip-path="url(#clip0_4300_835)">
<path d="M33.5384 14.1538H34.0035C35.0857 16.4422 35.6923 18.9975 35.6923 21.6923C35.6923 31.4478 27.7555 39.3846 18 39.3846C8.24445 39.3846 0.307678 31.4478 0.307678 21.6923C0.307678 11.9368 8.24445 4 18 4C20.6948 4 23.2501 4.60662 25.5384 5.68877V6.15385V7.62677L24.3109 8.85431C22.4061 7.914 20.2638 7.38462 18 7.38462C10.1108 7.38462 3.69229 13.8031 3.69229 21.6923C3.69229 29.5815 10.1108 36 18 36C25.8892 36 32.3077 29.5815 32.3077 21.6923C32.3077 19.4283 31.7783 17.286 30.8381 15.3812L32.0655 14.1538H33.5384ZM25.2308 21.6923C25.2308 25.6794 21.9871 28.9231 18 28.9231C14.0129 28.9231 10.7692 25.6794 10.7692 21.6923C10.7692 17.7052 14.0129 14.4615 18 14.4615C18.2264 14.4615 18.4501 14.4734 18.6712 14.4938L21.4944 11.6706C20.3994 11.2877 19.2241 11.0769 18 11.0769C12.1466 11.0769 7.3846 15.8389 7.3846 21.6923C7.3846 27.5457 12.1466 32.3077 18 32.3077C23.8534 32.3077 28.6154 27.5457 28.6154 21.6923C28.6154 20.4682 28.4046 19.2929 28.0217 18.1978L25.1986 21.0209C25.2189 21.2422 25.2308 21.4658 25.2308 21.6923ZM33.5384 11.0769L39.6923 4.92308H34.7692V0L28.6154 6.15385V8.90108L19.1654 18.3511C18.8003 18.2237 18.4084 18.1537 18 18.1537C16.0457 18.1537 14.4615 19.7378 14.4615 21.6922C14.4615 23.6465 16.0457 25.2306 18 25.2306C19.9543 25.2306 21.5384 23.6465 21.5384 21.6922C21.5384 21.2837 21.4684 20.8918 21.3411 20.5268L30.7912 11.0769H33.5384Z" fill="#F4A261"/>
</g>
<defs>
<clipPath id="clip0_4300_835">
<rect width="40" height="40" fill="white"/>
</clipPath>
</defs>
</svg>
